<svg xmlns="http://www.w3.org/2000/svg" viewBox="0 0 1455.4 1663.1" width="1455.4" height="1663.1">
  <g transform="translate(26.8 1526.4)" fill="#e7e9df">
    <path d="M876.6005493104458 -73.71323920786381Q950.1780707389116 -73.71323920786381 1017.855427376926 -87.41277195513248Q1085.5327840149403 -101.11230470240116 1157.7327433377504 -132.55577667057514L1106.3987765908241 -91.60017634928226L1262.6651624888182 -373.53346084058285H1313.932629391551L1272.644733339548 -52.867121040821075Q1194.5341281294823 -19.067030161619186 1084.3779846057296 1.4665459543466568Q974.2218410819769 22.0001220703125 849.087906897068 22.0001220703125Q677.5320488810539 22.0001220703125 537.5543226450682 -23.833165146410465Q397.5765964090824 -69.66645236313343 296.93237033486366 -158.1995985209942Q196.2881442606449 -246.73274467885494 142.0883470326662 -374.45460475981236Q87.8885498046875 -502.17646484076977 87.8885498046875 -665.8647447377443Q87.8885498046875 -878.5979668498039 183.22189670056105 -1037.5534423813224Q278.5552435964346 -1196.5089179128408 456.07771944999695 -1284.2532992884517Q633.6001953035593 -1371.9976806640625 879.7119872868061 -1371.9976806640625Q944.7558783441782 -1371.9976806640625 1008.0777587741613 -1364.2644070088863Q1071.3996392041445 -1356.5311333537102 1157.1774766594172 -1336.5311333537102L1095.1325941234827 -1323.3754855692387L1222.110801845789 -1411.686775714159H1245.2225178927183L1310.710746243596 -936.7980156838894L1262.154246672988 -926.819985628128L1081.1986748427153 -1241.486273869872L1134.5773233920336 -1185.7742933481932Q1051.1331664919853 -1236.1517035514116 981.5334648787975 -1255.2848151251674Q911.9337632656097 -1274.417926698923 833.7562336921692 -1274.417926698923Q707.4891031682491 -1274.417926698923 610.1557481363416 -1239.2290757894516Q512.822393104434 -1204.04022487998 446.5448113158345 -1135.8627882227302Q380.26722952723503 -1067.6853515654802 345.9785427302122 -967.4084384515882Q311.6898559331894 -867.1315253376961 311.6898559331894 -736.68874104321Q311.6898559331894 -574.8227145522833 354.1564025655389 -451.30092906951904Q396.6229491978884 -327.7791435867548 472.98948430269957 -243.70163369178772Q549.3560194075108 -159.62412379682064 652.4448737129569 -116.66868150234222Q755.533728018403 -73.71323920786381 876.6005493104458 -73.71323920786381Z"/>
    <rect x="427" y="-1221" width="86.1" height="1045.7"/>
  </g>
</svg>
